<svg xmlns="http://www.w3.org/2000/svg" width="512" height="512" style="overflow: visible;" viewBox="0 0 512 512" data-svgdocument="" id="_eg2jaknk8_1" class="fl-svgdocument" x="0" y="0"><path id="_eg2jaknk8_52" data-name="Compound Path" d="M60.2,21.5,50,32.1,39.8,21.5H8.6L1.5,78.5H23.8L40.6,62.2H59.4L76.2,78.5H98.5L91.4,21.5ZM79.1,71.5,62.2,55.2H37.8L20.9,71.5H9.5l5.3-43.1h22L50,42.2,63.2,28.5h22l5.3,43.1Z" transform="matrix(5.278350515463919, 0, 0, 5.278350515463919, -7.917525773195905, -7.917525773195905)" fill="#ffffff" data-uid="o_eki8h0a8m_6"></path><path id="_eg2jaknk8_53" data-name="Path" transform="matrix(5.278350515463919, 0, 0, 5.278350515463919, -7.917525773195905, -7.917525773195905)" fill="#66d9ff" data-type="polygon" d="M28.9 36L21.9 36L21.9 41L16.9 41L16.9 48L21.9 48L21.9 53L28.9 53L28.9 48L33.9 48L33.9 41L28.9 41L28.9 36Z" data-uid="o_eki8h0a8m_7"></path><path id="_eg2jaknk8_54" data-name="Path" transform="matrix(3.7323574179333296, -3.7323574179333296, 3.7323574179333296, 3.7323574179333296, -67.03502653517997, 348.8989935149404)" fill="#da3232" data-type="rect" data-x="69.5" data-y="43.8" data-width="13" data-height="7" d="M69.5,43.8H82.5,V50.8,H69.5,Z" data-uid="o_eki8h0a8m_8"></path><path id="_eg2jaknk8_55" data-name="Path" transform="matrix(3.7323574179333296, -3.7323574179333296, 3.7323574179333296, 3.7323574179333296, -52.25567408214928, 314.06187698647705)" fill="#46d45c" data-type="rect" data-x="62.8" data-y="37.2" data-width="13" data-height="7" d="M62.8,37.2H75.8,V44.2,H62.8,Z" data-uid="o_eki8h0a8m_9"></path></svg>